<?xml version="1.0" encoding="UTF-8"?>
<svg id="Layer_1" data-name="Layer 1" xmlns="http://www.w3.org/2000/svg" xmlns:xlink="http://www.w3.org/1999/xlink" viewBox="0 0 1922.05 542.77">
  <defs>
    <style>
      .cls-1 {
        clip-path: url(#clippath-1);
      }

      .cls-2 {
        clip-path: url(#clippath-3);
      }

      .cls-3 {
        clip-path: url(#clippath-4);
      }

      .cls-4 {
        clip-path: url(#clippath-2);
      }

      .cls-5 {
        clip-path: url(#clippath-7);
      }

      .cls-6 {
        clip-path: url(#clippath-6);
      }

      .cls-7 {
        clip-path: url(#clippath-5);
      }

      .cls-8 {
        fill: #fafafa;
      }

      .cls-9 {
        fill: #3888ff;
      }

      .cls-10 {
        clip-path: url(#clippath);
      }
    </style>
    <clipPath id="clippath">
      <path class="cls-9" d="M225.36,121.48c-10.98.94-20.95,9.28-23.47,20.04-1.16,4.98-.64,10.02-1.43,15.14-2.99,19.36-18.2,36.79-37.05,42.21-11.31,3.25-22.3.21-31.96,7.92-23.8,19.02-1.76,57.03,27.18,45.3,19.49-7.9,13.63-26.05,18.64-41.45,15.78-48.47,86.45-47.62,101.18,1.43,4.2,13.98-.8,26.2,12.57,36.64,23.69,18.48,55.77-11.76,37.77-36.72-9.45-13.1-19.68-9.33-32.96-12.11-20.07-4.2-37.1-21.45-40.66-41.7-1.25-7.1-.34-14.36-3.26-21.07-4.13-9.46-14.14-15.73-24.41-15.73-.71,0-1.42.03-2.13.09"/>
    </clipPath>
    <clipPath id="clippath-1">
      <path class="cls-9" d="M313.98,121.46c-20.6.73-32.03,23.82-21.25,41.14,9.61,15.45,25.27,10,39.88,15.04,46.74,16.14,47.12,83.35.77,99.98-13.97,5.01-27.77-.01-38.46,12.31-19.75,22.75,8.57,56.25,34.56,39.72,15.76-10.03,9.91-25.28,15.14-40.28,5.97-17.12,22.33-31.27,40.33-34.27,9.02-1.5,15.59.26,24-5.01,21.52-13.48,13.08-46.54-12.25-49-18.66-1.81-30.7-4.02-43.24-19.45-10.19-12.54-10.38-21.01-11.94-36.23-1.39-13.52-13.1-23.97-26.62-23.97-.31,0-.62,0-.92.02"/>
    </clipPath>
    <clipPath id="clippath-2">
      <path class="cls-9" d="M224.32,208.99c-11.73,1.32-21.69,11.34-23.05,23.05-1.86,15.89-1.91,25.32-13.08,38.19-12.95,14.91-24.87,16.41-43.27,18.38-22.79,2.44-31.78,31.59-14.01,46.62,8.74,7.39,14.63,5.33,24.82,6.78,21.45,3.05,39.76,20.07,44.21,41.26,2.76,13.19-.99,22.32,11.3,32.21,22.57,18.15,54.24-9.06,39.19-34.52-9.89-16.74-25.58-10.68-40.9-16.09-48.67-17.19-45.29-88.66,4.65-101.28,10.99-2.78,20.56.3,30.21-7.61,19.63-16.09,7.65-47.19-16.73-47.19-1.09,0-2.21.06-3.34.19"/>
    </clipPath>
    <clipPath id="clippath-3">
      <path class="cls-9" d="M212.82,328.96c9.9,16.24,24.92,10.34,40,15.43,18.66,6.3,32.52,23.51,35.28,42.94,1.21,8.51-.45,13.03,4.31,21.07,10.05,16.97,34.73,16.91,45.19.31,5.1-8.11,3.17-14.25,4.58-22.87,3.66-22.27,22.38-40.66,44.75-43.83,10.81-1.54,18.4.49,26.95-8.53,19.77-20.85-2.99-54.23-30.06-42.73-18.88,8.02-13.5,24.39-17.94,39.56-14.62,50-87.01,49.92-101.69.13-4.01-13.6.73-25.77-12.05-36.12-5.2-4.21-10.89-6.03-16.38-6.03-18.61,0-35,20.91-22.94,40.68"/>
    </clipPath>
    <clipPath id="clippath-4">
      <path class="cls-9" d="M370.91,138.49c-1.95.58-2.84,6.08-2.95,7.95-1,17.39,15.67,31.54,32.66,27.47,6.45-1.54,2.7-5.53.19-9.05-5.32-7.45-13.66-16-20.98-21.49-1.71-1.28-6.23-4.94-8.47-4.94-.16,0-.31.02-.45.06"/>
    </clipPath>
    <clipPath id="clippath-5">
      <path class="cls-9" d="M169.91,138.52c-1.73.44-11.65,8.53-13.59,10.26-2.35,2.11-5.16,4.89-7.27,7.23-2.05,2.28-9.48,11.19-10.34,13.5-1.07,2.87.88,3.82,3.32,4.41,15.89,3.81,32.13-8.52,32.67-24.9.09-2.85-.2-10.61-3.99-10.61-.25,0-.52.03-.8.11"/>
    </clipPath>
    <clipPath id="clippath-6">
      <path class="cls-9" d="M146.63,368c-2.74.15-9.1.69-8.08,4.64.5,1.93,8.17,11.32,9.99,13.34,4.24,4.71,14.88,14.78,20.29,17.53,2.53,1.29,4.14.56,4.94-2.16,4.92-16.61-8.93-33.38-25.78-33.38-.45,0-.9.01-1.35.04"/>
    </clipPath>
    <clipPath id="clippath-7">
      <path class="cls-9" d="M393.24,368c-9.83.53-19.42,7.17-23.09,16.29-2.35,5.84-3.61,14.23.39,19.56,1.22.6,2.19.22,3.3-.34,7.54-3.82,25.94-22.24,29.79-29.77,2.52-4.93-4.62-5.78-8.85-5.78-.58,0-1.1.01-1.54.04"/>
    </clipPath>
  </defs>
  <g>
    <g>
      <path class="cls-9" d="M225.36,121.48c-10.98.94-20.95,9.28-23.47,20.04-1.16,4.98-.64,10.02-1.43,15.14-2.99,19.36-18.2,36.79-37.05,42.21-11.31,3.25-22.3.21-31.96,7.92-23.8,19.02-1.76,57.03,27.18,45.3,19.49-7.9,13.63-26.05,18.64-41.45,15.78-48.47,86.45-47.62,101.18,1.43,4.2,13.98-.8,26.2,12.57,36.64,23.69,18.48,55.77-11.76,37.77-36.72-9.45-13.1-19.68-9.33-32.96-12.11-20.07-4.2-37.1-21.45-40.66-41.7-1.25-7.1-.34-14.36-3.26-21.07-4.13-9.46-14.14-15.73-24.41-15.73-.71,0-1.42.03-2.13.09"/>
      <g class="cls-10">
        <rect class="cls-9" x="107.65" y="121.38" width="239.14" height="145.81"/>
      </g>
    </g>
    <g>
      <path class="cls-9" d="M313.98,121.46c-20.6.73-32.03,23.82-21.25,41.14,9.61,15.45,25.27,10,39.88,15.04,46.74,16.14,47.12,83.35.77,99.98-13.97,5.01-27.77-.01-38.46,12.31-19.75,22.75,8.57,56.25,34.56,39.72,15.76-10.03,9.91-25.28,15.14-40.28,5.97-17.12,22.33-31.27,40.33-34.27,9.02-1.5,15.59.26,24-5.01,21.52-13.48,13.08-46.54-12.25-49-18.66-1.81-30.7-4.02-43.24-19.45-10.19-12.54-10.38-21.01-11.94-36.23-1.39-13.52-13.1-23.97-26.62-23.97-.31,0-.62,0-.92.02"/>
      <g class="cls-1">
        <rect class="cls-9" x="275.17" y="121.44" width="155.31" height="224.73"/>
      </g>
    </g>
    <g>
      <path class="cls-9" d="M224.32,208.99c-11.73,1.32-21.69,11.34-23.05,23.05-1.86,15.89-1.91,25.32-13.08,38.19-12.95,14.91-24.87,16.41-43.27,18.38-22.79,2.44-31.78,31.59-14.01,46.62,8.74,7.39,14.63,5.33,24.82,6.78,21.45,3.05,39.76,20.07,44.21,41.26,2.76,13.19-.99,22.32,11.3,32.21,22.57,18.15,54.24-9.06,39.19-34.52-9.89-16.74-25.58-10.68-40.9-16.09-48.67-17.19-45.29-88.66,4.65-101.28,10.99-2.78,20.56.3,30.21-7.61,19.63-16.09,7.65-47.19-16.73-47.19-1.09,0-2.21.06-3.34.19"/>
      <g class="cls-4">
        <rect class="cls-9" x="113.14" y="208.8" width="152.34" height="224.84"/>
      </g>
    </g>
    <g>
      <path class="cls-9" d="M212.82,328.96c9.9,16.24,24.92,10.34,40,15.43,18.66,6.3,32.52,23.51,35.28,42.94,1.21,8.51-.45,13.03,4.31,21.07,10.05,16.97,34.73,16.91,45.19.31,5.1-8.11,3.17-14.25,4.58-22.87,3.66-22.27,22.38-40.66,44.75-43.83,10.81-1.54,18.4.49,26.95-8.53,19.77-20.85-2.99-54.23-30.06-42.73-18.88,8.02-13.5,24.39-17.94,39.56-14.62,50-87.01,49.92-101.69.13-4.01-13.6.73-25.77-12.05-36.12-5.2-4.21-10.89-6.03-16.38-6.03-18.61,0-35,20.91-22.94,40.68"/>
      <g class="cls-2">
        <rect class="cls-9" x="200.77" y="279.25" width="232.89" height="146.13"/>
      </g>
    </g>
    <g>
      <path class="cls-9" d="M370.91,138.49c-1.95.58-2.84,6.08-2.95,7.95-1,17.39,15.67,31.54,32.66,27.47,6.45-1.54,2.7-5.53.19-9.05-5.32-7.45-13.66-16-20.98-21.49-1.71-1.28-6.23-4.94-8.47-4.94-.16,0-.31.02-.45.06"/>
      <g class="cls-3">
        <rect class="cls-9" x="366.97" y="138.43" width="40.11" height="39.55"/>
      </g>
    </g>
    <g>
      <path class="cls-9" d="M169.91,138.52c-1.73.44-11.65,8.53-13.59,10.26-2.35,2.11-5.16,4.89-7.27,7.23-2.05,2.28-9.48,11.19-10.34,13.5-1.07,2.87.88,3.82,3.32,4.41,15.89,3.81,32.13-8.52,32.67-24.9.09-2.85-.2-10.61-3.99-10.61-.25,0-.52.03-.8.11"/>
      <g class="cls-7">
        <rect class="cls-9" x="137.64" y="138.41" width="37.15" height="39.31"/>
      </g>
    </g>
    <g>
      <path class="cls-9" d="M146.63,368c-2.74.15-9.1.69-8.08,4.64.5,1.93,8.17,11.32,9.99,13.34,4.24,4.71,14.88,14.78,20.29,17.53,2.53,1.29,4.14.56,4.94-2.16,4.92-16.61-8.93-33.38-25.78-33.38-.45,0-.9.01-1.35.04"/>
      <g class="cls-6">
        <rect class="cls-9" x="137.52" y="367.96" width="41.15" height="36.83"/>
      </g>
    </g>
    <g>
      <path class="cls-9" d="M393.24,368c-9.83.53-19.42,7.17-23.09,16.29-2.35,5.84-3.61,14.23.39,19.56,1.22.6,2.19.22,3.3-.34,7.54-3.82,25.94-22.24,29.79-29.77,2.52-4.93-4.62-5.78-8.85-5.78-.58,0-1.1.01-1.54.04"/>
      <g class="cls-5">
        <rect class="cls-9" x="366.54" y="367.96" width="39.61" height="36.49"/>
      </g>
    </g>
  </g>
  <g>
    <path class="cls-8" d="M542.68,298.74l.65-148.33h23.69v91.46c10.2-17.99,30.29-28.49,52.48-28.49,40.19,0,70.77,33.89,70.77,77.97s-30.59,77.97-70.77,77.97c-57.41,0-76.81-46.87-76.81-70.58M665.07,291.35c0-32.39-19.79-55.78-49.48-55.78s-49.48,23.39-49.48,55.78,19.79,55.78,49.48,55.78,49.48-23.39,49.48-55.78"/>
    <rect class="cls-8" x="714.85" y="150.41" width="23.99" height="215.91"/>
    <path class="cls-8" d="M787.12,352.82c-9.3-10.2-14.69-24.29-14.69-45.28v-91.16h23.99v88.76c0,14.7,3.3,24.59,9.3,31.19,6,6.9,14.99,10.8,25.19,10.8,24.29,0,38.39-18.59,38.39-45.88v-84.86h23.99v149.94h-23.39v-22.79c-9.89,17.09-25.19,25.79-44.38,25.79-15.29,0-29.09-6-38.38-16.49"/>
    <path class="cls-8" d="M918.17,291.35c0-44.38,31.79-77.97,74.07-77.97s72.57,31.49,72.57,79.77v4.2h-121.75c2.4,29.69,21.59,49.78,49.18,49.78,21.89,0,37.78-11.99,41.98-29.99l26.39,3.9c-9.3,29.39-35.68,48.28-68.37,48.28-42.58,0-74.07-33.58-74.07-77.97M1038.72,276.95c-3-24.29-19.79-41.38-46.48-41.38-24.59,0-42.88,16.19-47.98,41.38h94.46Z"/>
    <path class="cls-8" d="M1076.8,321.64h25.19c1.5,16.49,14.09,26.69,34.49,26.69,19.19,0,31.79-9.6,31.79-23.69,0-12-7.2-17.39-26.69-21.29l-16.19-3.3c-29.99-6-44.38-19.19-44.38-41.38,0-26.09,22.79-45.28,54.28-45.28s53.98,17.99,55.78,45.28h-24.89c-1.2-14.7-13.19-24.29-30.89-24.29s-29.69,9-29.69,22.49c0,10.8,7.2,17.09,23.09,20.09l16.79,3.3c33.29,6.6,47.38,18.59,47.38,41.08,0,28.49-23.39,47.98-56.38,47.98s-57.88-19.8-59.68-47.68"/>
    <path class="cls-8" d="M1208.14,291.35c0-44.38,31.79-77.97,74.07-77.97s72.57,31.49,72.57,79.77v4.2h-121.75c2.4,29.69,21.59,49.78,49.18,49.78,21.89,0,37.78-11.99,41.98-29.99l26.39,3.9c-9.3,29.39-35.68,48.28-68.37,48.28-42.58,0-74.07-33.58-74.07-77.97M1328.69,276.95c-3-24.29-19.79-41.38-46.48-41.38-24.59,0-42.88,16.19-47.98,41.38h94.46Z"/>
    <path class="cls-8" d="M1379.07,216.38h23.39v21.59c9.9-15.89,26.09-24.59,45.28-24.59,16.19,0,29.99,6,39.29,16.49,9.3,10.19,14.69,24.29,14.69,41.08v95.36h-23.99v-91.76c0-11.69-3.3-21.59-9.3-28.19-6-6.9-14.99-10.79-26.09-10.79-23.39,0-39.29,17.09-39.29,41.98v88.76h-23.99v-149.94Z"/>
    <path class="cls-8" d="M1522.71,321.64h25.19c1.5,16.49,14.09,26.69,34.48,26.69,19.19,0,31.79-9.6,31.79-23.69,0-12-7.2-17.39-26.69-21.29l-16.2-3.3c-29.99-6-44.38-19.19-44.38-41.38,0-26.09,22.79-45.28,54.28-45.28s53.98,17.99,55.78,45.28h-24.89c-1.2-14.7-13.19-24.29-30.89-24.29s-29.69,9-29.69,22.49c0,10.8,7.2,17.09,23.09,20.09l16.79,3.3c33.29,6.6,47.38,18.59,47.38,41.08,0,28.49-23.39,47.98-56.38,47.98s-57.88-19.8-59.68-47.68"/>
    <path class="cls-8" d="M1654.05,291.35c0-44.38,31.79-77.97,74.07-77.97s72.57,31.49,72.57,79.77v4.2h-121.75c2.4,29.69,21.59,49.78,49.18,49.78,21.89,0,37.78-11.99,41.98-29.99l26.39,3.9c-9.3,29.39-35.68,48.28-68.37,48.28-42.58,0-74.07-33.58-74.07-77.97M1774.6,276.95c-3-24.29-19.79-41.38-46.48-41.38-24.59,0-42.88,16.19-47.98,41.38h94.46Z"/>
  </g>
</svg>